# xmcd
#
# Track frame offsets:
# 150
# 20929
# 40352
# 58991
# 70535
# 97562
# 128108
# 145340
# 163106
# 175839
# 194862
# 214670
# 248539
#
# Disc length: 3760 seconds
#
# Revision: 1
# Processed by: cddbd v1.5.2PL0 Copyright (c) Steve Scherf et al.
# Submitted via: CedeCatalogueitor 2.6.0.6 http://personales.ya.com/cdcatalogueitor
#
DISCID=bd0eae0d
DTITLE=Stay - Things You Cannot See
DYEAR=1900
DGENRE=
TTITLE0=I Feel You Around
TTITLE1=We Need Neil Youngs
TTITLE2=Waiting For My Girl
TTITLE3=The Fight Generation
TTITLE4=June Sun
TTITLE5=Revelation Of Soul
TTITLE6=Modern Ropes
TTITLE7=Super Heavy Soul Mammoth Explosion
TTITLE8=Sweet Leather
TTITLE9=Southern Drunkie Man
TTITLE10=Things You Cannon See
TTITLE11=Our Reason To Live
TTITLE12=
EXTD=
EXTT0=
EXTT1=
EXTT2=
EXTT3=
EXTT4=
EXTT5=
EXTT6=
EXTT7=
EXTT8=
EXTT9=
EXTT10=
EXTT11=
EXTT12=
PLAYORDER=
